<!-- Generated by IcoMoon.io -->
<svg version="1.1" xmlns="http://www.w3.org/2000/svg" width="24" height="24" viewBox="0 0 24 24">
<title>check</title>
<path d="M10.184 14.615l8.062-8.188c0.395-0.401 1.039-0.406 1.44-0.011 0.004 0.004 0.007 0.007 0.011 0.011 0.403 0.409 0.403 1.065 0 1.474l-9.513 9.662c-0.408 0.414-1.075 0.42-1.489 0.012-0.004-0.004-0.008-0.008-0.012-0.012l-4.382-4.45c-0.403-0.409-0.403-1.065 0-1.474 0.395-0.401 1.039-0.406 1.44-0.011 0.004 0.004 0.007 0.007 0.011 0.011l2.93 2.976c0.408 0.414 1.075 0.42 1.489 0.012 0.004-0.004 0.008-0.008 0.012-0.012z"></path>
</svg>
