<!-- Generated by IcoMoon.io -->
<svg version="1.1" xmlns="http://www.w3.org/2000/svg" width="24" height="24" viewBox="0 0 24 24">
<title>codepen</title>
<path d="M12.071 22.996l0.019-0.001c-0.019 0.002-0.038 0.003-0.057 0.004l-0.033 0.001 0.067-0.003h0.004zM12.545 22.838l-0.093 0.052 0.023-0.010 0.070-0.042zM6.999 13.221l-3.212 2.248 7.213 4.688v-4.136l-4.001-2.8zM17 13.22l-4 2.8v4.137l7.212-4.688-3.212-2.249zM12 9.72l-3.256 2.279 3.256 2.279 3.256-2.279-3.256-2.279zM21 10.42l-2.256 1.579 2.256 1.58v-3.159zM3 10.421v3.157l2.255-1.578-2.255-1.579zM11 3.842l-7.213 4.688 3.212 2.249 4.001-2.801v-4.136zM13 3.842v4.137l4 2.8 3.212-2.249-7.212-4.688zM1.423 16.316l0.001-0-0.022-0.015-0.006-0.005 0.004 0.004-0.048-0.039c-0.013-0.011-0.026-0.023-0.039-0.035-0.047-0.045-0.090-0.094-0.127-0.146-0.092-0.131-0.147-0.27-0.171-0.412-0.009-0.054-0.014-0.111-0.014-0.168v-7c0-0.057 0.005-0.113 0.014-0.168 0.024-0.141 0.079-0.28 0.167-0.405 0.025-0.035 0.051-0.068 0.079-0.099 0.016-0.018 0.033-0.035 0.051-0.052 0.013-0.013 0.026-0.025 0.040-0.036s0.029-0.023 0.043-0.035c0.018-0.014 0.036-0.027 0.055-0.039 0.002-0.001 0.004-0.002 0.006-0.004l10.009-6.506c0.032-0.020 0.066-0.039 0.1-0.056l-0.109 0.062c0.046-0.030 0.093-0.055 0.142-0.077 0.026-0.012 0.052-0.022 0.079-0.031 0.015-0.005 0.031-0.010 0.047-0.015 0.022-0.007 0.044-0.012 0.067-0.017 0.019-0.004 0.038-0.007 0.057-0.010 0.050-0.008 0.101-0.012 0.153-0.012l-0.093 0.004c0.025-0.002 0.050-0.004 0.075-0.004l0.018-0c0.006 0 0.013 0 0.019 0 0.025 0 0.049 0.002 0.074 0.004 0.020 0.002 0.040 0.004 0.060 0.007s0.038 0.007 0.057 0.011c0.022 0.004 0.044 0.010 0.066 0.016 0.017 0.005 0.033 0.010 0.049 0.016 0.026 0.009 0.052 0.019 0.078 0.030 0.011 0.005 0.021 0.010 0.032 0.015 0.035 0.017 0.069 0.035 0.101 0.056l0.009 0.006 10.104 6.578c0.013 0.011 0.026 0.023 0.039 0.035 0.018 0.018 0.035 0.035 0.052 0.053 0.028 0.031 0.054 0.064 0.079 0.099 0.088 0.126 0.143 0.264 0.167 0.406 0.009 0.054 0.014 0.111 0.014 0.168v7c0 0.057-0.005 0.113-0.014 0.168-0.024 0.141-0.079 0.28-0.167 0.405-0.001 0.002-0.003 0.004-0.005 0.006-0.037 0.052-0.079 0.101-0.126 0.145-0.013 0.013-0.026 0.025-0.040 0.036s-0.029 0.023-0.043 0.035c-0.018 0.014-0.036 0.027-0.055 0.039-0.002 0.001-0.004 0.002-0.006 0.004l-9.996 6.498c-0.036 0.024-0.074 0.045-0.113 0.064l0.016-0.010-0.049 0.025c-0.025 0.011-0.052 0.022-0.078 0.031-0.016 0.005-0.032 0.010-0.048 0.015-0.022 0.007-0.044 0.012-0.067 0.017-0.019 0.004-0.038 0.007-0.057 0.010l-0.075 0.009-0.006-0 0.019-0.001-0.090 0.004c-0.011 0-0.022-0-0.033-0.001-0.018-0.001-0.038-0.002-0.057-0.004-0.021-0.002-0.042-0.004-0.063-0.008-0.019-0.003-0.038-0.007-0.057-0.011-0.022-0.005-0.044-0.010-0.066-0.016-0.016-0.005-0.032-0.010-0.048-0.015-0.027-0.009-0.053-0.019-0.079-0.031-0.011-0.005-0.021-0.010-0.032-0.015-0.040-0.019-0.077-0.040-0.113-0.064l-10.029-6.52z"></path>
</svg>
