<!-- Generated by IcoMoon.io -->
<svg version="1.1" xmlns="http://www.w3.org/2000/svg" width="24" height="24" viewBox="0 0 24 24">
<title>github</title>
<path d="M15.881 2.369c1.76-1.119 3.074-1.473 3.97-1.343 0.078 0.011 0.145 0.026 0.2 0.042 0.272 0.081 0.494 0.278 0.605 0.54 0.51 1.191 0.604 2.514 0.278 3.757 0.848 1.080 1.314 2.418 1.315 3.803 0 4.334-1.885 6.509-5.282 7.341l-0.239 0.056 0.090 0.248c0.136 0.417 0.204 0.85 0.199 1.279l-0.012 0.257v3.697c0 0.528-0.427 0.955-0.953 0.955-0.489 0-0.892-0.369-0.947-0.844l-0.006-0.111 0.003-3.772c0.046-0.589-0.139-1.17-0.513-1.622l-0.19-0.215c-0.445-0.575-0.098-1.447 0.652-1.53 3.593-0.401 5.292-1.833 5.292-5.737-0-1.089-0.418-2.135-1.167-2.924-0.252-0.265-0.33-0.65-0.203-0.993 0.274-0.736 0.318-1.532 0.133-2.286-0.067 0.015-0.14 0.034-0.22 0.057-0.614 0.177-1.38 0.549-2.302 1.169-0.229 0.154-0.514 0.201-0.78 0.129-2.022-0.549-4.153-0.549-6.175 0-0.266 0.072-0.551 0.025-0.78-0.129-0.922-0.619-1.688-0.991-2.302-1.169-0.080-0.023-0.153-0.042-0.22-0.057-0.184 0.753-0.141 1.55 0.133 2.286 0.128 0.342 0.049 0.728-0.203 0.993-0.755 0.794-1.173 1.85-1.167 2.952 0 3.868 1.686 5.288 5.304 5.739 0.743 0.093 1.082 0.958 0.64 1.529l-0.188 0.213c-0.332 0.402-0.516 0.912-0.518 1.479l0.006 0.191v3.697c0 0.528-0.427 0.955-0.953 0.955-0.489 0-0.892-0.369-0.947-0.844l-0.006-0.111 0.001-1.661c-2.030 0.332-3.348-0.292-4.56-1.72l-0.151-0.183-0.536-0.67c-0.275-0.326-0.463-0.485-0.64-0.551l-0.172-0.054c-0.447-0.169-0.706-0.65-0.587-1.125 0.128-0.512 0.645-0.823 1.156-0.695 0.669 0.167 1.137 0.527 1.682 1.171l0.151 0.183 0.547 0.684c0.854 1.012 1.608 1.351 3.112 1.019v-0.028c-0.044-0.632 0.056-1.258 0.284-1.835-3.567-0.82-5.531-2.974-5.531-7.379-0.007-1.397 0.46-2.748 1.315-3.837-0.326-1.243-0.231-2.565 0.278-3.757 0.112-0.261 0.333-0.459 0.605-0.54 0.055-0.016 0.121-0.031 0.2-0.042 0.896-0.13 2.21 0.224 3.97 1.343 2.082-0.495 4.251-0.495 6.333 0z"></path>
</svg>
