<!-- Generated by IcoMoon.io -->
<svg version="1.1" xmlns="http://www.w3.org/2000/svg" width="24" height="24" viewBox="0 0 24 24">
<title>logo</title>
<path d="M11.318 9.052c1.576 0 3.059 0.629 4.177 1.773 2.035 2.085 1.682 4.586 1.725 4.844 0.009 1.759-1.528 3.708-2.447 4.297-3.454 2.213-6.552 0.235-6.965-0.094-1.1-0.876-1.684-1.708-1.786-2.545-0.108-0.887 0.202-1.42 0.48-1.71 0.194-0.202 0.617-0.339 0.988-0.178 0.259 0.112 0.451 0.342 0.52 0.62 0.383 1.541 1.673 2.673 3.308 2.673 1.961-0.002 3.548-1.628 3.545-3.631 0.003-2.003-1.585-3.629-3.546-3.631-1.104 0-2.085 0.52-2.732 1.332-0.3 0.377-0.799 0.52-1.247 0.357s-0.748-0.598-0.748-1.084c0-2.124 3.382-3.024 4.728-3.024zM17.797 3c0.646 0 1.164 0.518 1.18 1.178l0.014 0.57c0.068 2.51-0.284 5.498-0.969 8.071-0.073-0.237-0.159-0.47-0.256-0.699-0.193-1.992-0.584-3.921-1.188-5.725 0.036-0.527 0.066-1.053 0.051-1.582l-0.014-0.57c-0.019-0.645 0.464-1.224 1.182-1.244zM14.148 3.666c0.197 0.479 1.375 2.334 2.113 6.239-0.549-0.547-1.181-1-1.872-1.34-0.464-0.6-0.951-1.182-1.459-1.745-0.547-1.477-0.651-1.533-0.897-2.074-0.291-0.597-0.055-1.322 0.529-1.621 0.569-0.295 1.303-0.043 1.586 0.541zM9.46 5.193c0.269 0.238 1.269 0.924 2.86 2.729-0.332-0.051-0.666-0.078-1.002-0.081-0.576 0-1.312 0.111-2.068 0.333-1.062-0.971-0.685-0.599-1.26-1.086-0.512-0.417-0.597-1.178-0.19-1.702 0.394-0.507 1.167-0.596 1.659-0.194z"></path>
</svg>
