<!-- Generated by IcoMoon.io -->
<svg version="1.1" xmlns="http://www.w3.org/2000/svg" width="24" height="24" viewBox="0 0 24 24">
<title>twitter</title>
<path d="M11.149 8.231c0.067-1.754 1.246-3.311 3.008-3.942 1.65-0.591 3.496-0.256 4.788 0.829 0.693-0.239 1.351-0.563 1.956-0.963 0.645-0.427 1.509 0.125 1.322 0.844-0.293 1.127-0.879 2.165-1.703 3.023 0.013 0.13 0.019 0.26 0.020 0.392 0 9.5-9.775 14.38-18.348 9.912-0.786-0.41-0.45-1.534 0.449-1.501 1.44 0.054 2.866-0.215 4.163-0.775-1.882-1.088-3.088-2.529-3.679-4.234-0.61-1.76-0.521-3.609-0.012-5.366 0.154-0.531 0.311-0.932 0.422-1.166 0.27-0.569 1.098-0.645 1.479-0.135 1.376 1.839 3.524 3.011 5.871 3.247l0.262 0.022 0.003-0.189zM19.545 6.618l-0.292 0.096-0.295 0.088c-0.322 0.091-0.67-0.004-0.891-0.241-0.818-0.883-2.137-1.192-3.302-0.775s-1.929 1.472-1.912 2.652v0.801c0 0.434-0.369 0.79-0.832 0.801-2.785 0.068-5.445-0.96-7.363-2.793-0.337 1.366-0.362 2.774 0.089 4.074 0.578 1.667 1.902 3.020 4.183 3.971 0.612 0.255 0.687 1.042 0.133 1.395-0.956 0.609-2.003 1.065-3.1 1.359 6.558 1.618 12.868-2.465 12.868-9.629-0.001-0.174-0.018-0.347-0.053-0.517-0.054-0.263 0.036-0.533 0.239-0.721 0.19-0.176 0.366-0.364 0.528-0.561z"></path>
</svg>
