<svg xmlns="http://www.w3.org/2000/svg" viewBox="0 0 1097 928"><defs/><g fill="none" fill-rule="evenodd"><path stroke="#FC840C" stroke-width="4" d="M47.2751581,886.650242 C47.6468767,887.379781 47.981947,888.125781 48.2803679,888.888242 C48.578789,889.650702 48.839124,890.42595 49.0613743,891.213989 C49.2836238,892.002028 49.466719,892.799064 49.6106592,893.605096 C49.7545971,894.411124 49.858686,895.222266 49.9229257,896.03852 C49.9871663,896.854777 50.0112498,897.672218 49.9951732,898.490839 C49.9790984,899.309463 49.9229408,900.125325 49.8267025,900.938428 C49.7304655,901.751534 49.594612,902.557969 49.4191396,903.357725 C49.2436671,904.157482 49.029423,904.946714 48.7764067,905.725421 C48.5233892,906.504127 48.2328186,907.268561 47.9046943,908.01872 C47.5765703,908.76888 47.2124686,909.501145 46.8123937,910.215523 C46.4123212,910.929909 45.9781989,911.622964 45.5100301,912.294695 C45.0418627,912.966427 44.5418977,913.613592 44.0101426,914.236196 C43.4783898,914.858803 42.9174007,915.453848 42.3271791,916.021332 C41.7369601,916.588823 41.1203473,917.126016 40.4773438,917.632915 C39.8343407,918.139818 39.1680451,918.613989 38.4784545,919.055424 C37.7888634,919.496863 37.079299,919.903441 36.3497601,920.27516 C35.6202212,920.646878 34.8742205,920.981948 34.1117606,921.280369 C33.3493011,921.578792 32.5740515,921.839124 31.7860122,922.061375 C30.9979733,922.283624 30.200938,922.46672 29.3949049,922.610659 C28.588878,922.754599 27.7777359,922.858686 26.9614802,922.922923 C26.1452237,922.987165 25.3277842,923.011252 24.5091619,922.995172 C23.6905379,922.979098 22.8746765,922.922941 22.0615725,922.8267 C21.2484685,922.730468 20.4420349,922.594616 19.6422784,922.419144 C18.8425206,922.24367 18.0532878,922.029424 17.2745809,921.776407 C16.4958744,921.523389 15.7314409,921.232819 14.981282,920.904695 C14.2311218,920.57657 13.4988556,920.212466 12.784474,919.812386 C12.0700898,919.412316 11.377036,918.978197 10.7053045,918.510027 C10.033574,918.041861 9.38640911,917.541896 8.76380425,917.01014 C8.1411972,916.478388 7.5461519,915.917397 6.97866842,915.327176 C6.41117738,914.736958 5.87398364,914.120344 5.36708321,913.477338 C4.86018237,912.834338 4.38601097,912.168042 3.94457567,911.478452 C3.50313862,910.788864 3.09656122,910.079301 2.72484258,909.349762 C2.35312394,908.620223 2.0180548,907.874223 1.71963247,907.111761 C1.42120926,906.3493 1.16087581,905.574049 0.938625012,904.786008 C0.71637555,903.997969 0.533280495,903.200936 0.389342926,902.394906 C0.245401358,901.588876 0.141314014,900.777733 0.07707599,899.961476 C0.0128346899,899.145221 -0.0112507482,898.327783 0.0048272505,897.509158 C0.0209021537,896.690536 0.0770575171,895.874671 0.17329734,895.061565 C0.269530475,894.248462 0.405384139,893.442032 0.580855627,892.642275 C0.75632982,891.842517 0.970576084,891.053285 1.22359269,890.274578 C1.47661059,889.495872 1.76718222,888.73144 2.09530734,887.981283 C2.42343335,887.231126 2.78753487,886.498854 3.18761302,885.784469 C3.58768429,885.070088 4.02180334,884.377033 4.48997388,883.705303 C4.95814093,883.033576 5.45810469,882.386408 5.98986038,881.763802 C6.52161364,881.141197 7.08260368,880.54615 7.67282337,879.978665 C8.26304377,879.411178 8.87965676,878.873983 9.52266144,878.36708 C10.1656618,877.860179 10.8319586,877.38601 11.5215491,876.944574 C12.2111378,876.503139 12.9207017,876.096563 13.6502406,875.724844 C14.3797795,875.353126 15.1257789,875.018056 15.8882408,874.719634 C16.6507027,874.421212 17.4259528,874.160876 18.2139931,873.938625 C19.0020326,873.716375 19.799066,873.533281 20.6050958,873.389343 C21.4111264,873.245403 22.2222684,873.141314 23.0385245,873.077073 C23.8547803,873.012834 24.6722194,872.988751 25.490843,873.004826 C26.3094658,873.020902 27.1253303,873.077058 27.9384356,873.173295 C28.7515404,873.269533 29.5579714,873.405388 30.3577285,873.58086 C31.1574856,873.756333 31.9467173,873.970577 32.7254238,874.223593 C33.50413,874.476611 34.2685614,874.767182 35.0187185,875.095308 C35.7688757,875.423433 36.5011458,875.787532 37.2155284,876.187605 C37.9299111,876.587679 38.6229672,877.021801 39.2946964,877.489971 C39.9664251,877.95814 40.6135927,878.458103 41.2361983,878.989858 C41.8588033,879.521612 42.4538492,880.0826 43.0213352,880.672821 C43.5888221,881.263042 44.1260166,881.879654 44.6329187,882.522656 C45.139821,883.165659 45.6139899,883.831956 46.0554256,884.521546 C46.4968622,885.211139 46.9034395,885.920703 47.2751581,886.650242 Z" transform="translate(2 3)"/><path stroke="#00CBF4" stroke-width="4" d="M800.977024,726.259838 C799.62571,727.241626 798.229539,728.154819 796.788504,728.999424 C795.347467,729.844031 793.868507,730.615981 792.351629,731.31527 C790.834747,732.014562 789.287248,732.637829 787.709129,733.185072 C786.131005,733.732319 784.529861,734.200907 782.905705,734.59083 C781.281543,734.980758 779.642181,735.290149 777.98762,735.519004 C776.333064,735.747854 774.671269,735.895071 773.002248,735.960645 C771.33322,736.026224 769.665002,736.009844 767.997586,735.911511 C766.330171,735.813179 764.671591,735.633365 763.021845,735.372072 C761.372099,735.110775 759.739129,734.769257 758.122936,734.347518 C756.506744,733.92578 754.915117,733.425844 753.34805,732.847718 C751.780975,732.269594 750.246005,731.616063 748.743141,730.887126 C747.240283,730.158183 745.776766,729.357349 744.352593,728.484614 C742.928412,727.611882 741.550433,726.671455 740.218659,725.663326 C738.88688,724.655203 737.60772,723.584237 736.381178,722.450424 C735.154629,721.316612 733.986604,720.125418 732.877092,718.876846 C731.767581,717.628278 730.721928,716.328338 729.740152,714.977027 C728.758359,713.625716 727.84517,712.229542 727.000568,710.788505 C726.155964,709.347466 725.38401,707.868509 724.684721,706.351631 C723.985423,704.834754 723.362156,703.287254 722.814918,701.709132 C722.26767,700.131008 721.799087,698.529861 721.409169,696.905701 C721.019241,695.281539 720.709851,693.642176 720.480994,691.987617 C720.252147,690.333059 720.104933,688.671262 720.03936,687.002239 C719.973777,685.333215 719.990151,683.665 720.088484,681.997585 C720.186817,680.330169 720.36663,678.671589 720.627924,677.021844 C720.889218,675.372099 721.230735,673.73913 721.652474,672.122937 C722.074214,670.506744 722.574148,668.915118 723.152279,667.348048 C723.730398,665.780976 724.38393,664.246005 725.112863,662.743144 C725.841807,661.240286 726.642645,659.776765 727.515382,658.35259 C728.38811,656.928414 729.32854,655.550432 730.336671,654.218656 C731.344791,652.886879 732.415758,651.607719 733.54957,650.381178 C734.683375,649.154634 735.874569,647.986609 737.123138,646.877099 C738.371707,645.767587 739.67165,644.721941 741.022965,643.740154 C742.374272,642.758371 743.770446,641.845174 745.211482,641.000573 C746.652521,640.155969 748.131478,639.384015 749.648363,638.684721 C751.165241,637.985423 752.712741,637.362155 754.290862,636.814918 C755.868983,636.267672 757.47013,635.799089 759.094296,635.409167 C760.718455,635.019241 762.357816,634.709853 764.012374,634.480996 C765.666936,634.252145 767.32873,634.104934 768.997758,634.039358 C770.666777,633.973778 772.334993,633.990151 774.002409,634.088484 C775.669823,634.186818 777.328405,634.36663 778.978151,634.627922 C780.627897,634.889217 782.260866,635.230733 783.877058,635.652473 C785.49325,636.074213 787.084882,636.574143 788.651957,637.15227 C790.219027,637.730391 791.753996,638.383925 793.256852,639.112861 C794.759714,639.841802 796.223233,640.642641 797.647409,641.515378 C799.07158,642.388109 800.449557,643.328543 801.781333,644.336673 C803.113106,645.344798 804.392266,646.415764 805.618813,647.549572 C806.845357,648.683377 808.013386,649.874568 809.122894,651.123139 C810.232402,652.37171 811.278049,653.671652 812.259837,655.022967 C813.241619,656.374274 814.154815,657.770449 814.99942,659.211483 C815.844027,660.65252 816.615976,662.13148 817.31527,663.648365 C818.014562,665.165247 818.63783,666.712747 819.185072,668.290864 C819.732317,669.868986 820.200905,671.47013 820.590833,673.094292 C820.980758,674.718451 821.290148,676.357811 821.519002,678.012371 C821.747855,679.666931 821.895069,681.328723 821.960648,682.997749 C822.026223,684.666772 822.009844,686.334992 821.911511,688.002408 C821.813178,689.669821 821.633365,691.328403 821.372073,692.97815 C821.110777,694.627897 820.769259,696.260867 820.347519,697.877059 C819.92578,699.49325 819.425849,701.084883 818.847726,702.651955 C818.269601,704.219029 817.616068,705.753996 816.887128,707.256855 C816.158188,708.759717 815.357353,710.223233 814.484619,711.647407 C813.611882,713.071582 812.671451,714.449556 811.663324,715.781331 C810.655197,717.113105 809.584231,718.392265 808.450422,719.618813 C807.31661,720.845362 806.125419,722.013391 804.876845,723.122901 C803.628275,724.232408 802.328332,725.278056 800.977024,726.259838 Z" transform="translate(2 3)"/><path fill="#FF4678" fill-opacity=".929" d="M576.898727,265.647988 L609.320694,251.052913 C609.752163,250.85868 610.052828,251.215895 609.992236,251.850772 C609.931649,252.48565 609.532749,253.157778 609.101277,253.352011 L576.679306,267.947088 C576.247832,268.141319 575.947172,267.784105 576.007764,267.149227 C576.068356,266.514347 576.467254,265.842221 576.898727,265.647988 Z" transform="translate(2 3)"/><path stroke="#5A46FF" stroke-width="4" d="M1092 19.694L1072.306 32 1060 12.306 1079.694 0z" transform="translate(2 3)"/></g></svg>